<svg width="27" height="27" viewBox="0 0 27 27" fill="none" xmlns="http://www.w3.org/2000/svg">
<g clip-path="url(#clip0_1_149)">
<path d="M0.25 0.5V26.5H26.25V0.5H0.25ZM17.7437 20.8667C16.8265 21.456 15.8021 21.8589 14.7291 22.0522C13.6562 22.2455 12.5556 22.2254 11.4904 21.9932C10.4252 21.761 9.41616 21.3212 8.52099 20.6989C7.62582 20.0766 6.86205 19.284 6.27333 18.3663L6.24733 18.3273C6.18987 18.2273 6.17448 18.1086 6.20455 17.9973C6.23462 17.886 6.30768 17.7911 6.40767 17.7337C6.50765 17.6762 6.62637 17.6608 6.73771 17.6909C6.84904 17.7209 6.94387 17.794 7.00133 17.894C7.67431 18.9406 8.59929 19.8014 9.69143 20.3976C10.7836 20.9937 12.0079 21.3061 13.2522 21.3061C14.4964 21.3061 15.7208 20.9937 16.8129 20.3976C17.905 19.8014 18.83 18.9406 19.503 17.894L19.529 17.855C19.5981 17.7671 19.6986 17.7093 19.8094 17.6937C19.9202 17.6782 20.0326 17.7061 20.1233 17.7716C20.214 17.8371 20.2759 17.9351 20.2959 18.0451C20.316 18.1552 20.2927 18.2687 20.231 18.362C19.5911 19.3656 18.7428 20.2198 17.7437 20.8667ZM9.28067 12.6333C8.86923 12.6333 8.47464 12.7968 8.18371 13.0877C7.89278 13.3786 7.72933 13.7732 7.72933 14.1847C7.72933 14.2996 7.68368 14.4098 7.60241 14.4911C7.52115 14.5723 7.41093 14.618 7.296 14.618C7.18107 14.618 7.07085 14.5723 6.98959 14.4911C6.90832 14.4098 6.86267 14.2996 6.86267 14.1847C6.86267 13.5434 7.11742 12.9283 7.57088 12.4749C8.02435 12.0214 8.63937 11.7667 9.28067 11.7667C9.92196 11.7667 10.537 12.0214 10.9905 12.4749C11.4439 12.9283 11.6987 13.5434 11.6987 14.1847C11.6987 14.2996 11.653 14.4098 11.5717 14.4911C11.4905 14.5723 11.3803 14.618 11.2653 14.618C11.1504 14.618 11.0402 14.5723 10.9589 14.4911C10.8777 14.4098 10.832 14.2996 10.832 14.1847C10.8349 13.9791 10.7969 13.7751 10.7202 13.5843C10.6435 13.3936 10.5297 13.22 10.3854 13.0737C10.241 12.9273 10.069 12.8111 9.87938 12.7318C9.68974 12.6525 9.48623 12.6116 9.28067 12.6117V12.6333ZM17.2193 12.6333C16.8079 12.6333 16.4133 12.7968 16.1224 13.0877C15.8314 13.3786 15.668 13.7732 15.668 14.1847C15.668 14.2996 15.6223 14.4098 15.5411 14.4911C15.4598 14.5723 15.3496 14.618 15.2347 14.618C15.1197 14.618 15.0095 14.5723 14.9283 14.4911C14.847 14.4098 14.8013 14.2996 14.8013 14.1847C14.8013 13.8671 14.8639 13.5527 14.9854 13.2593C15.1069 12.966 15.285 12.6994 15.5095 12.4749C15.7341 12.2504 16.0006 12.0722 16.294 11.9507C16.5874 11.8292 16.9018 11.7667 17.2193 11.7667C17.5369 11.7667 17.8513 11.8292 18.1447 11.9507C18.438 12.0722 18.7046 12.2504 18.9291 12.4749C19.1536 12.6994 19.3318 12.966 19.4533 13.2593C19.5748 13.5527 19.6373 13.8671 19.6373 14.1847C19.6373 14.2996 19.5917 14.4098 19.5104 14.4911C19.4291 14.5723 19.3189 14.618 19.204 14.618C19.0891 14.618 18.9789 14.5723 18.8976 14.4911C18.8163 14.4098 18.7707 14.2996 18.7707 14.1847C18.7735 13.9791 18.7355 13.7751 18.6589 13.5843C18.5822 13.3936 18.4684 13.22 18.324 13.0737C18.1797 12.9273 18.0077 12.8111 17.8181 12.7318C17.6284 12.6525 17.4249 12.6116 17.2193 12.6117V12.6333Z" fill="white"/>
</g>
<defs>
<clipPath id="clip0_1_149">
<rect x="0.25" y="0.5" width="26" height="26" rx="13" fill="white"/>
</clipPath>
</defs>
</svg>
