<svg width="21" height="30" viewBox="0 0 21 30" fill="none" xmlns="http://www.w3.org/2000/svg">
<g clip-path="url(#clip0_1_279)">
<path d="M10.4998 29.2917L9.7659 28.4122C9.36781 27.9339 0 16.6393 0 11.0953C0 5.31623 4.7101 0.614258 10.4998 0.614258C16.2904 0.614258 21 5.31623 21 11.0953C21 16.6391 11.6329 27.9339 11.2334 28.4119L10.4998 29.2917ZM10.4998 2.52006C5.76281 2.52006 1.90874 6.3669 1.90874 11.0955C1.90874 14.7895 7.55819 22.615 10.4998 26.2934C13.4418 22.615 19.0913 14.7895 19.0913 11.0955C19.0913 6.36668 15.2372 2.52006 10.4998 2.52006Z" fill="#069AA1"/>
<path d="M10.4998 15.3274C8.16245 15.3274 6.26025 13.4291 6.26025 11.0956C6.26025 8.76186 8.16245 6.86328 10.4998 6.86328C12.8375 6.86328 14.7397 8.76186 14.7397 11.0956C14.7397 13.4288 12.8375 15.3274 10.4998 15.3274ZM10.4998 8.76864C9.21493 8.76864 8.16945 9.81209 8.16945 11.0953C8.16945 12.3779 9.21493 13.4218 10.4998 13.4218C11.7851 13.4218 12.831 12.3782 12.831 11.0953C12.831 9.81231 11.7851 8.76864 10.4998 8.76864Z" fill="#069AA1"/>
</g>
<defs>
<clipPath id="clip0_1_279">
<rect width="21" height="29" fill="white" transform="translate(0 0.453125)"/>
</clipPath>
</defs>
</svg>
