<svg width="25" height="26" viewBox="0 0 25 26" fill="none" xmlns="http://www.w3.org/2000/svg">
<g clip-path="url(#clip0_1_285)">
<path d="M5.58379 2.17094C6.04157 2.17094 6.56391 2.33754 6.96616 2.93774C8.04996 4.55248 9.09524 6.07378 9.67413 7.10963C9.87003 7.46106 10.0602 8.45572 9.42044 9.1758C8.86798 9.79649 8.38069 9.94874 8.08623 10.402C7.88439 10.7143 7.65385 11.4125 8.03315 12.2151C8.48663 13.1737 9.03991 13.961 10.254 15.1946C11.4872 16.4071 12.2743 16.96 13.2348 17.4136C13.5483 17.5616 13.8462 17.6165 14.111 17.6165C14.5247 17.6165 14.8583 17.4831 15.0481 17.3606C15.5015 17.0667 15.6542 16.5794 16.2753 16.0272C16.6497 15.695 17.0978 15.5866 17.4915 15.5866C17.856 15.5866 18.1739 15.6796 18.3423 15.7743C19.3786 16.3522 20.9005 17.397 22.5168 18.4798C23.6504 19.2394 23.2371 20.4263 23.0775 20.7995C22.9171 21.1726 22.0964 22.4075 20.3316 23.3306C19.846 23.5845 19.2052 23.7351 18.4284 23.7351C15.9827 23.7351 12.194 22.2384 7.69976 17.7464C1.7787 11.8284 1.06006 7.13442 2.11353 5.12214C3.03689 3.35781 4.27253 2.53753 4.6463 2.3779C4.8213 2.3025 5.17683 2.17094 5.58379 2.17094ZM5.58379 0.453125C4.91207 0.453125 4.33257 0.642263 3.96495 0.801278C3.23791 1.11111 1.69981 2.20618 0.590389 4.32604C-0.79587 6.97397 -0.0848109 12.3959 6.48419 18.961C12.1354 24.6093 16.3931 25.4529 18.4282 25.4529C19.4577 25.4529 20.366 25.2507 21.1279 24.8525C23.2449 23.7451 24.3424 22.2093 24.657 21.4765C25.3904 19.7614 24.9258 18.0259 23.4742 17.0526C23.225 16.886 22.9781 16.72 22.7353 16.5567C21.3898 15.6522 20.1187 14.7975 19.18 14.2737C18.7212 14.0172 18.1054 13.869 17.4919 13.8686C16.5939 13.8686 15.7788 14.1704 15.1345 14.7424C14.7067 15.1225 14.4401 15.4747 14.2452 15.7315C14.205 15.7846 14.155 15.8507 14.1165 15.8981H14.111C14.0706 15.8981 14.0229 15.8854 13.9688 15.8598C13.2552 15.5229 12.6169 15.1067 11.469 13.979C10.3403 12.8315 9.92392 12.1934 9.58683 11.4805C9.55568 11.4147 9.54769 11.3662 9.5481 11.3334C9.59544 11.2948 9.66224 11.2446 9.71552 11.2043C9.97269 11.0096 10.3247 10.7434 10.7044 10.317C11.7917 9.09281 11.7583 7.32049 11.1758 6.27377C10.6473 5.32829 9.78601 4.049 8.87372 2.69491C8.71553 2.45967 8.55467 2.22114 8.39299 1.98037C7.73295 0.995743 6.73501 0.453125 5.58379 0.453125Z" fill="#069AA1"/>
</g>
<defs>
<clipPath id="clip0_1_285">
<rect width="25" height="25" fill="white" transform="translate(0 0.453125)"/>
</clipPath>
</defs>
</svg>
