<svg width="24" height="26" viewBox="0 0 24 26" fill="none" xmlns="http://www.w3.org/2000/svg">
<g clip-path="url(#clip0_1_295)">
<path d="M23.0446 11.7792C22.2335 10.7209 20.9946 10.138 19.5575 10.138H17.0539C18.0837 7.88432 18.1188 4.59941 17.2994 2.65106C16.7029 1.23329 15.6818 0.453125 14.4236 0.453125C14.0822 0.453125 13.725 0.513042 13.3616 0.629778C11.5663 1.2087 11.499 2.63887 11.4395 3.90044C11.3527 5.73391 11.2213 8.42998 6.55766 11.9114V10.1624H0.0165405V25.2091H6.55786V23.348C7.67729 24.362 9.27067 25.4531 10.9473 25.4531H18.5116C20.0895 25.4531 21.6457 24.2595 22.0554 22.7362L23.7541 16.4159C24.2236 14.6697 23.9651 12.9792 23.0446 11.7792ZM4.81757 23.469H1.75683V11.9037H4.81757V23.469ZM22.0732 15.9641L20.3744 22.2847C20.1701 23.0461 19.2998 23.7126 18.5118 23.7126H10.9473C9.30311 23.7126 7.37171 21.8122 6.55786 20.8416V14.049C12.9064 9.73618 13.0756 6.14548 13.1781 3.98267C13.2409 2.64796 13.3151 2.47399 13.8955 2.28618C14.086 2.22482 14.2641 2.19383 14.4238 2.19383C14.9517 2.19383 15.3787 2.57482 15.6948 3.32606C16.5626 5.38928 16.1105 9.09155 14.8306 10.3996L13.3837 11.8783H19.5572C20.4537 11.8783 21.1822 12.2099 21.663 12.8378C22.2517 13.6056 22.401 14.7442 22.0732 15.9641Z" fill="#069AA1"/>
</g>
<defs>
<clipPath id="clip0_1_295">
<rect width="24" height="25" fill="white" transform="translate(0 0.453125)"/>
</clipPath>
</defs>
</svg>
